/* XPM */
static char *book[] = {
/* columns rows colors chars-per-pixel */
"32 32 190 2 ",
"   c None",
".  c #4B4020",
"X  c #4D4223",
"o  c #4D4224",
"O  c #4E4428",
"+  c #4F4528",
"@  c #4F4529",
"#  c #51472C",
"$  c #504A2D",
"%  c #504A2E",
"&  c #514B2F",
"*  c #524B2F",
"=  c #524E2D",
"-  c #524F2D",
";  c #524C2E",
":  c #53502D",
">  c #51532C",
",  c #53502E",
"<  c #54502F",
"1  c #50542C",
"2  c #4C4A3E",
"3  c #524B30",
"4  c #4E5F31",
"5  c #4E5F32",
"6  c #4F6031",
"7  c #4E6032",
"8  c #4F6032",
"9  c #4F6137",
"0  c #4F6237",
"q  c #50673A",
"w  c #56693C",
"e  c #56683D",
"r  c #4D703F",
"t  c #4D713F",
"y  c #4E713F",
"u  c #4C4A40",
"i  c #555144",
"p  c #555245",
"a  c #5B5440",
"s  c #5C5541",
"d  c #5E5845",
"f  c #4E7240",
"g  c #4D7C48",
"h  c #4D7C49",
"j  c #4D7D4A",
"k  c #547040",
"l  c #517643",
"z  c #5C6E55",
"x  c #5C6F57",
"c  c #5D735E",
"v  c #5E735F",
"b  c #737573",
"n  c #727673",
"m  c #747774",
"M  c #757775",
"N  c #7A7D7A",
"B  c #7A7D7B",
"V  c #7B7E7B",
"C  c #7C7F7C",
"Z  c #4D834F",
"A  c #4D844F",
"S  c #58864D",
"D  c #58864E",
"F  c #59874E",
"G  c #4D8450",
"H  c #4D8550",
"J  c #4D8551",
"K  c #4F8752",
"L  c #508953",
"P  c #518954",
"I  c #528955",
"U  c #538955",
"Y  c #508A54",
"T  c #518A54",
"R  c #528B54",
"E  c #538A55",
"W  c #528B55",
"Q  c #528C55",
"!  c #588C52",
"~  c #549157",
"^  c #5A9055",
"/  c #569358",
"(  c #569259",
")  c #57945A",
"_  c #5A9358",
"`  c #58955B",
"'  c #58965B",
"]  c #58975C",
"[  c #5A975C",
"{  c #59985C",
"}  c #5B985C",
"|  c #5B9B5E",
" . c #5C995E",
".. c #5C9A5F",
"X. c #5B9C5E",
"o. c #5B9C5F",
"O. c #708371",
"+. c #728773",
"@. c #748775",
"#. c #758776",
"$. c #7D807D",
"%. c #7D817E",
"&. c #7E817E",
"*. c #7F827F",
"=. c #8E8D88",
"-. c #8F8F8B",
";. c #8F8D8C",
":. c #8F8F8D",
">. c #8E9B8F",
",. c #909090",
"<. c #919191",
"1. c #939291",
"2. c #929292",
"3. c #939393",
"4. c #969691",
"5. c #959492",
"6. c #979692",
"7. c #979792",
"8. c #949494",
"9. c #959595",
"0. c #969696",
"q. c #919E92",
"w. c #929F93",
"e. c #939F94",
"r. c #9A9897",
"t. c #9A9997",
"y. c #9A9B96",
"u. c #9B9B96",
"i. c #9C9B96",
"p. c #9C9B97",
"a. c #9C9C97",
"s. c #9B9B9B",
"d. c #9C9B99",
"f. c #9D9C98",
"g. c #9E9D9A",
"h. c #9D9D9D",
"j. c #9E9E9E",
"k. c #A1A1A1",
"l. c #A3A3A3",
"z. c #A4A4A4",
"x. c #A5A5A5",
"c. c #A6A6A6",
"v. c #A7A7A7",
"b. c #A3ACA3",
"n. c #A3AEA4",
"m. c #A4AEA4",
"M. c #A5AEA5",
"N. c #A8A8A8",
"B. c #A9A9A9",
"V. c #ABABA8",
"C. c #AAAAAA",
"Z. c #AAAAAB",
"A. c #ABABAB",
"S. c #ACADAA",
"D. c #ADAEAB",
"F. c #ACABAC",
"G. c #ACACAC",
"H. c #ADADAD",
"J. c #AEAEAE",
"K. c #AFAFAF",
"L. c #B1B1AF",
"P. c #B1B1B1",
"I. c #CCCCCC",
"U. c #CCCDCC",
"Y. c #CDCECD",
"T. c #CECECE",
"R. c #D5D5D5",
"E. c #D6D5D6",
"W. c #D6D6D6",
"Q. c #D7D6D7",
"!. c #D7D7D7",
"~. c #D7D8D8",
"^. c #D8D8D8",
"/. c #D8D9D9",
"(. c #D9D9D9",
"). c #DDDCDD",
"_. c #DDDDDD",
"`. c #DEDEDE",
"'. c #DFDEDF",
"]. c #DFDFDF",
"[. c #DFDFE0",
"{. c #E1E1E1",
"}. c #E1E2E2",
"|. c #E2E2E2",
" X c #ECEDED",
".X c #EFEFEF",
"XX c #F0F0F0",
"oX c #F8F8F9",
"OX c #F9F9F9",
"+X c #F9F9FA",
/* pixels */
"                        | | | | | | | |                         ",
"                  | | | | | | | | | | | | | |                   ",
"              | | | | | | | | | | | | | | | | | |               ",
"            | | | | | | | | | | | | | | | | | | | |             ",
"          | | | | | | | | | | | | | | | | | | | | | |           ",
"        | | | | | | | | | | | | | | | | | | | | | | | |         ",
"      | | | | | | | | | | | | | | | | | | | | | | | | | |       ",
"    | | | | | | | | | | | | | | | | | | | | | | | | | | | |     ",
"    | | | | | | | | X.X.X.X.| | | | X.X.X.X.| | | | | | | |     ",
"  | | | | | | | [ ( U U U U (  . .( U U U U ~ [ | | | | | | |   ",
"  | | | | X.^ w z @.w.m.n.w.+.c v O.>.b.m.e.@.z w ! X.| | | |   ",
"  | | | | X.S = =.{.`.W.W.`.`.M M `.`.W.W.`.{.:.% l [ | | | |   ",
"| | | | | X.S < 7.B.9.B.B.9.B.B C G.3.c.B.9.c.3.3 r U ' | | | | ",
"| | | | | X.S , u.(.W.(.~.W.W.&.&.W.W.W.W.W.(.u.% r H L ' | | | ",
"| | | | | X.S , 7.B.3.c.c.3.B.B B G.3.c.B.9.c.3.% r H H L ' | | ",
"| | | | | X.S , u.~.W.(.(.W.W.&.&.W.W.(.(.W.W.u.% r H H H L ' | ",
"| | | | | X.S < 7.B.3.l.l.3.B.B B G.3.l.c.9.c.3.% r H H H H L ) ",
"| | | | | X.S , u.W.W.(.(.W.W.&.&.W.W.(.(.W.W.u.% r H H H H H H ",
"| | | | | X.S < 7.A.,.j.j.3.G.B C P.3.s.j.3.B.5.% r H H H H H H ",
"| | | | | X.S , a.{..X+X+X.X[.&.&.`..X+X+XXX{.d.% r H H H H H H ",
"  | | | | X.S = =.I.D.p.p.D.I.M n I.L.f.f.B.I.:.% r H H H H H   ",
"  | | | | X.S , i a + . . + s 2 u d # o X + s i = f H H H H H   ",
"  | | | | X._ k 9 4 6 6 6 6 4 1 , 4 6 6 6 6 4 9 q h H H H H H   ",
"    | | | | | | U H H H H H Z h h Z H H H H A Z H H H H H H     ",
"    | | | | | | | Q H H H H H H H H H H H H H H H H H H H H     ",
"      | | | | | | | U H H H H H H H H H H H H H H H H H H       ",
"        | | | | | | | Q H H H H H H H H H H H H H H H H         ",
"          | | | | | | | U H H H H H H H H H H H H H H           ",
"            | | | | | | | Q H H H H H H H H H H H H             ",
"              | | | | | | | U H H H H H H H H H H               ",
"                  | | | | | | Q H H H H H H H                   ",
"                        | | | | U H H H                         "
};
