/* XPM */
static char *browser[] = {
/* columns rows colors chars-per-pixel */
"36 36 194 2 ",
"   c None",
".  c #1D2A3E",
"X  c #1D2B3E",
"o  c #1E2B3E",
"O  c #1E2C3F",
"+  c #1F2C3F",
"@  c #272C3C",
"#  c #262E3F",
"$  c #2B2E3E",
"%  c #2D2E3E",
"&  c #3B303C",
"*  c #3B303D",
"=  c #4A323A",
"-  c #4C3038",
";  c #5D3438",
":  c #5E3438",
">  c #743735",
",  c #1F2C40",
"<  c #1E2D40",
"1  c #1F2D40",
"2  c #202D40",
"3  c #212D40",
"4  c #212E40",
"5  c #212E41",
"6  c #222F41",
"7  c #253243",
"8  c #263345",
"9  c #2C3949",
"0  c #2C384A",
"q  c #2C394B",
"w  c #2D3A4B",
"e  c #2E3B4C",
"r  c #3C3C4B",
"t  c #2C3E5E",
"y  c #2C3F5F",
"u  c #2D3F5F",
"i  c #344150",
"p  c #354152",
"a  c #3A4755",
"s  c #3D4A57",
"d  c #2E4060",
"f  c #304161",
"g  c #304261",
"h  c #304262",
"j  c #314262",
"k  c #364866",
"l  c #374867",
"z  c #384967",
"x  c #414D5D",
"c  c #424E5E",
"v  c #775558",
"b  c #495661",
"n  c #4D5965",
"m  c #4F5A69",
"M  c #505D67",
"N  c #445470",
"B  c #455570",
"V  c #455571",
"C  c #465671",
"Z  c #465672",
"A  c #475672",
"S  c #57646D",
"D  c #5D6774",
"F  c #5E6B73",
"G  c #5F6976",
"H  c #626B78",
"J  c #637077",
"K  c #6B787D",
"L  c #8D382F",
"P  c #9E3C2F",
"I  c #883932",
"U  c #883933",
"Y  c #9A3B30",
"T  c #AB3E2E",
"R  c #B73D2A",
"E  c #B73F2C",
"W  c #BD3F2B",
"Q  c #BA3F2C",
"!  c #C03E29",
"~  c #C03F2A",
"^  c #C13F2A",
"/  c #BE402B",
"(  c #BF402B",
")  c #BD402C",
"_  c #BE402C",
"`  c #BF412C",
"'  c #BE4C3A",
"]  c #C0402A",
"[  c #C0402B",
"{  c #C1402B",
"}  c #C0412C",
"|  c #C04B38",
" . c #C04C39",
".. c #BF5342",
"X. c #BF5E4E",
"o. c #A65E51",
"O. c #A75E51",
"+. c #A65E52",
"@. c #A75E52",
"#. c #A36156",
"$. c #AC6357",
"%. c #B46A5F",
"&. c #BF6A5D",
"*. c #AC6860",
"=. c #BA6F63",
"-. c #BF766C",
";. c #BF776C",
":. c #C05E4F",
">. c #C06A5E",
",. c #627187",
"<. c #637287",
"1. c #6F7C80",
"2. c #637288",
"3. c #737F84",
"4. c #717D90",
"5. c #707D91",
"6. c #717E91",
"7. c #748184",
"8. c #778487",
"9. c #7B888A",
"0. c #7F898A",
"q. c #7D8A8B",
"w. c #7E8B8C",
"e. c #7E8B8D",
"r. c #7E8C8D",
"t. c #7F8C8D",
"y. c #7F8C8E",
"u. c #788698",
"i. c #798799",
"p. c #7A8798",
"a. c #7C8899",
"s. c #7C889A",
"d. c #7E899A",
"f. c #7E8A9B",
"g. c #7F8A9B",
"h. c #818989",
"j. c #808D8E",
"k. c #808D8F",
"l. c #868E8E",
"z. c #818994",
"x. c #838B95",
"c. c #868F98",
"v. c #808B9C",
"b. c #818C9D",
"n. c #839091",
"m. c #849092",
"M. c #849192",
"N. c #879496",
"B. c #8C9799",
"V. c #8C989A",
"C. c #919C9E",
"Z. c #BF948F",
"A. c #BFA09E",
"S. c #BFA19F",
"D. c #9198A1",
"F. c #929AA2",
"G. c #9E9CA2",
"H. c #95A0A3",
"J. c #9BA0A1",
"K. c #98A2A4",
"L. c #9AA3A8",
"P. c #9EA8B3",
"I. c #9FA9B4",
"U. c #A0A9B3",
"Y. c #A5AEB2",
"T. c #A6AFB3",
"R. c #A1A9B4",
"E. c #A1AAB4",
"W. c #A2AAB5",
"Q. c #A7AEB5",
"!. c #A8AFB6",
"~. c #AFB2B5",
"^. c #ACB4B8",
"/. c #ADB5B8",
"(. c #AEB5BC",
"). c #BCB1B3",
"_. c #BCB2B3",
"`. c #BAB1B4",
"'. c #B8B5B9",
"]. c #BAB6B9",
"[. c #B9B6BA",
"{. c #B1B8BE",
"}. c #B1B8BF",
"|. c #B3B8BF",
" X c #B2B9BF",
".X c #B6B8BC",
"XX c #B4BBBF",
"oX c #BABABF",
"OX c #B3B9C0",
"+X c #B3BAC1",
"@X c #B4BBC0",
"#X c #B6BDC2",
"$X c #B7BDC3",
"%X c #B6BEC4",
/* pixels */
"                                                                        ",
"                                                                        ",
"                          [ [ [ [ [ [ [ [ [ [                           ",
"                      [ [ [ [ [ [ [ [ [ [ [ [ [ (                       ",
"                  [ [ [ [ [ [ [ [ [ [ [ [ [ [ [ [ [ (                   ",
"                [ [ [ [ [ [ [ [ [ [ [ [ [ [ [ [ [ [ [ (                 ",
"              [ [ [ [ [ [ [ [ [ [ [ [ [ [ [ [ [ [ [ [ [ (               ",
"            [ [ [ [ [ [ [ [ [ [ [ [ [ [ [ [ [ [ [ [ [ [ [ `             ",
"          [ [ [ [ [ [ [ [ [ [ [ [ [ [ [ [ [ [ [ [ [ [ [ [ [ `           ",
"        I Q [ [ [ [ [ [ [ [ [ ^ ^ ^ ^ ^ ^ ^ ^ ^ ^ ^ ^ ^ ^ ^ ^ `         ",
"        & Y [ [ [ [ [ [ [ ^ }  .X.&.=.%.$.+.+.+.+.+.+.+.+.+.+.#.        ",
"      2 2 ; E [ [ [ [ [ ^ | ;.S.).'..X.X~.J.l.h.h.h.h.h.h.h.h.h.q.      ",
"      2 1 $ I ( [ [ [ ^ ..Z.oXP.i.2.2.i.I.%XT.N.y.y.y.y.y.y.y.y.w.      ",
"    2 2 2 1 = T [ [ [ | Z.|.a.N d t t g N a.+XT.n.y.y.y.y.y.y.y.y.w.    ",
"    2 2 2 1 # > W [ ` ;.oXa.k t d d d d t z a.$XK.y.y.y.y.y.y.y.y.w.    ",
"    2 2 2 2 1 & P ^ ' S.P.N t d d d d d d t N U./.m.y.y.y.y.y.y.y.y.    ",
"    2 2 2 2 2 2 ; R :.).i.g d d d d d d d d g a.$XV.w.y.y.y.y.y.y.y.    ",
"    2 2 2 2 2 1 % L >.'.,.t d d d d d d d d d 5.$XC.w.y.y.y.y.y.y.y.    ",
"    2 2 2 2 2 2 1 - *.'.2.t d d d d d d d d d 5.$XC.w.y.y.y.y.y.y.y.    ",
"    2 2 2 2 2 2 1 # v `.i.g d d d d d d d d g a..XB.w.y.y.y.y.y.y.y.    ",
"    2 2 2 2 2 2 2 + r G.U.N t d d d d d d t N W.^.m.w.y.y.y.y.y.y.y.    ",
"    2 2 2 2 2 2 2 2 2 H +Xa.k t d d d d t z b.$XH.y.y.y.y.y.y.y.y.y.    ",
"    2 2 2 2 2 2 2 2 + 9 z.|.a.N g t t g N b.|.L.k.y.y.y.y.y.y.y.y.y.    ",
"      2 2 2 2 2 2 2 2 + i z.|.W.a.5.5.v.W.|.c.3.w.y.y.y.y.y.y.y.y.      ",
"      2 2 2 2 2 2 2 2 2 + 9 G D.Q.(.(.Q.D.D n 8.k.y.y.y.y.y.y.y.y.      ",
"        2 2 2 2 2 2 2 2 2 1 2 9 x m m x 9 9 J k.y.y.y.y.y.y.y.y.        ",
"        2 2 2 2 2 2 2 2 2 2 2 + . . . . # b 9.y.y.y.y.y.y.y.y.w.        ",
"          2 2 2 2 2 2 2 2 2 2 2 2 2 2 # 9 K k.y.y.y.y.y.y.y.w.          ",
"            2 2 2 2 2 2 2 2 2 2 2 2 2 2 M q.y.y.y.y.y.y.y.w.            ",
"              2 2 2 2 2 2 2 2 2 2 2 + i 1.k.y.y.y.y.y.y.w.              ",
"                2 2 2 2 2 2 2 2 2 1 7 S w.y.y.y.y.y.y.w.                ",
"                  2 2 2 2 2 2 2 2 + a 7.k.y.y.y.y.y.w.                  ",
"                      2 2 2 2 2 2 7 F y.y.y.y.y.y.                      ",
"                          2 2 2 2 s 8.y.y.y.y.                          ",
"                                                                        ",
"                                                                        "
};
