/* XPM */
static char *haskell1[] = {
/* columns rows colors chars-per-pixel */
"40 28 4 1 ",
"  c None",
". c #453A62",
"X c #5E5086",
"o c #8F4E8B",
/* pixels */
".......   XXXXXXX                       ",
" .......  XXXXXXX                       ",
"  .......  XXXXXXX                      ",
"  .......   XXXXXXX                     ",
"   .......  XXXXXXX                     ",
"    .......  XXXXXXX                    ",
"    .......   XXXXXXX                   ",
"     .......  XXXXXXX                   ",
"      .......  XXXXXXX   ooooooooooooooo",
"      .......   XXXXXXX  ooooooooooooooo",
"       .......  XXXXXXXX  oooooooooooooo",
"        .......  XXXXXXX   ooooooooooooo",
"        .......   XXXXXXX  ooooooooooooo",
"         .......  XXXXXXXX              ",
"         .......  XXXXXXXX              ",
"        .......   XXXXXXXXX   oooooooooo",
"        .......  XXXXXXXXXXX  oooooooooo",
"       .......  XXXXXXXXXXXX   ooooooooo",
"      .......   XXXXXXXXXXXXX  ooooooooo",
"      .......  XXXXXXXXXXXXXXX  oooooooo",
"     .......  XXXXXXX  XXXXXXX          ",
"    .......   XXXXXXX   XXXXXXX         ",
"    .......  XXXXXXX     XXXXXXX        ",
"   .......  XXXXXXX      XXXXXXX        ",
"  .......   XXXXXXX       XXXXXXX       ",
"  .......  XXXXXXX         XXXXXXX      ",
" .......  XXXXXXX          XXXXXXX      ",
".......   XXXXXXX           XXXXXXX     "
};
