/* XPM */
static char *intellij[] = {
/* columns rows colors chars-per-pixel */
"36 36 211 2 ",
"   c None",
".  c #223849",
"X  c #23394A",
"o  c #233A4B",
"O  c #223A4C",
"+  c #233B4D",
"@  c #243B4C",
"#  c #243B4D",
"$  c #233C4F",
"%  c #243C4D",
"&  c #243C4E",
"*  c #253C4E",
"=  c #253D4E",
"-  c #243C4F",
";  c #253D4F",
":  c #233E52",
">  c #253D50",
",  c #253E50",
"<  c #263F51",
"1  c #273F51",
"2  c #263F52",
"3  c #253F54",
"4  c #274052",
"5  c #274053",
"6  c #254054",
"7  c #274154",
"8  c #284052",
"9  c #284053",
"0  c #284153",
"q  c #294153",
"w  c #284154",
"e  c #2A4254",
"r  c #2A4355",
"t  c #2C4557",
"y  c #27445A",
"u  c #2A465A",
"i  c #2D4659",
"p  c #2B475C",
"a  c #29475E",
"s  c #2C475C",
"d  c #2E485A",
"f  c #2C495E",
"g  c #2C495F",
"h  c #2D4A5F",
"j  c #2E4B5F",
"k  c #334D5F",
"l  c #2D4B61",
"z  c #2E4B60",
"x  c #2E4B61",
"c  c #2E4C61",
"v  c #2D4C63",
"b  c #2E4C62",
"n  c #2F4D62",
"m  c #2E4D63",
"M  c #2F4D63",
"N  c #2D4C64",
"B  c #2F4E64",
"V  c #334D60",
"C  c #334E61",
"Z  c #304D63",
"A  c #314E63",
"S  c #324E62",
"D  c #344E60",
"F  c #304E64",
"G  c #314E64",
"H  c #355062",
"J  c #355063",
"K  c #365163",
"L  c #335066",
"P  c #385365",
"I  c #395466",
"U  c #345268",
"Y  c #355369",
"T  c #36546A",
"R  c #37566B",
"E  c #3A5568",
"W  c #3A5668",
"Q  c #3B5669",
"!  c #3C576A",
"~  c #3C586B",
"^  c #3F5A6D",
"/  c #3F5B6E",
"(  c #3B5A70",
")  c #3D5C72",
"_  c #3F5F74",
"`  c #41494B",
"'  c #40494C",
"]  c #575954",
"[  c #525959",
"{  c #5B5E59",
"}  c #615E53",
"|  c #7D6344",
" . c #726753",
".. c #706654",
"X. c #405B6D",
"o. c #405B6E",
"O. c #415D70",
"+. c #425F72",
"@. c #426177",
"#. c #446074",
"$. c #446174",
"%. c #466174",
"&. c #446378",
"*. c #45657A",
"=. c #47677D",
"-. c #4A677B",
";. c #49697F",
":. c #4A697E",
">. c #816643",
",. c #846846",
"<. c #8C6B45",
"1. c #AC7D46",
"2. c #A47A48",
"3. c #B17F45",
"4. c #C7843B",
"5. c #D98D3B",
"6. c #DF903A",
"7. c #EB9437",
"8. c #F49835",
"9. c #F79934",
"0. c #F69935",
"q. c #F79935",
"w. c #F89A34",
"e. c #4C6D82",
"r. c #4D6D83",
"t. c #4D6E84",
"y. c #4E6E84",
"u. c #4F6E84",
"i. c #4F7085",
"p. c #507085",
"a. c #517085",
"s. c #527084",
"d. c #527185",
"f. c #517287",
"g. c #547387",
"h. c #557488",
"j. c #557588",
"k. c #56768B",
"l. c #57778C",
"z. c #59798D",
"x. c #5A7A8E",
"c. c #5C7C90",
"v. c #5C7D91",
"b. c #5D7D91",
"n. c #5D7E93",
"m. c #5E7F93",
"M. c #5C7E94",
"N. c #5D8095",
"B. c #608195",
"V. c #608296",
"C. c #628397",
"Z. c #62859A",
"A. c #63869B",
"S. c #64869B",
"D. c #65879B",
"F. c #66879C",
"G. c #66889C",
"H. c #67899D",
"J. c #678A9F",
"K. c #688A9F",
"L. c #6A8CA1",
"P. c #6C8EA3",
"I. c #6D90A4",
"U. c #6F90A4",
"Y. c #7091A4",
"T. c #7393A7",
"R. c #7394A8",
"E. c #7296AB",
"W. c #7797AB",
"Q. c #7397AC",
"!. c #7497AC",
"~. c #7798AB",
"^. c #7498AC",
"/. c #7498AD",
"(. c #7499AE",
"). c #7599AE",
"_. c #759AAE",
"`. c #769AAF",
"'. c #779BB0",
"]. c #789CB1",
"[. c #789DB1",
"{. c #789DB2",
"}. c #799EB3",
"|. c #7A9FB3",
" X c #7A9FB4",
".X c #7BA0B5",
"XX c #7BA0B6",
"oX c #7BA1B6",
"OX c #7CA0B5",
"+X c #7CA1B6",
"@X c #7CA1B7",
"#X c #7CA2B7",
"$X c #7DA2B7",
"%X c #7EA2B7",
"&X c #7EA3B7",
"*X c #7FA4B9",
"=X c #88ABC0",
"-X c #89ADC1",
";X c #8BAFC3",
":X c #8CAEC2",
">X c #8CAFC4",
",X c #8DB1C5",
"<X c #8EB1C5",
"1X c #8FB2C6",
"2X c #90B2C6",
"3X c #91B4C8",
"4X c #92B5C9",
"5X c #93B6CA",
"6X c #93B7CB",
"7X c #94B7CB",
"8X c #95B8CC",
/* pixels */
"                                                                        ",
"                                M M M M                                 ",
"                        M M M M M M M M M M M M                         ",
"                    M M M M M M M M M M M M M M M M                     ",
"                M M M M M M M M M M M M M M M M M M M M                 ",
"              M M M M M M M M M M M M M M M M M M M M M M               ",
"            M M M M l M M M l l l l l M M M M M l l M M M M             ",
"          M M M M _ r.t.t.t.f.l.l.l.k.*.F M M T t.f.T M M M M           ",
"        M M M M =.(.XXXXXXXX#X:X7X7X7X:Xf.l Y U.4X4XR.Y M M M M         ",
"        M M M F Z.#XXXXXXXXXXX#X>X4X4X8XY.s &.1X7X4X2X%.j M M M         ",
"      M M M M M M.#XXXXX#X#X#XXX#X:X4X8X~.8 %.2X4X4X4X%.2 l M M l       ",
"      M M M M M ) J.!.(.(.(.(.(.{.#X;X8XW.2 o.1X4X4X4X%.+ w l M M       ",
"    M M M M M M M L J S S S k D C.#X#X1X~.8 o.1X4X4X4X%.+ & w l B j     ",
"    M M M M M M M M j 2 & & & & v.#XXX*XY.8 o.1X4X4X4X%.+ & & w l M     ",
"    M M M M M M M M S j 3 & & & v.#XXX#XF.2 o.1X4X4X4X%.+ & & & w l     ",
"    M M M M M M S  .3.1.} 5 & & v.#XXX#XD.2 o.1X4X4X4X%.+ & & & & w     ",
"  M M M M M M M ..7.w.w.6.] 3 & v.#XXX#XD.2 ! =X4X4X4X%.+ & & & & & X   ",
"  M M M M M M S 1.w.9.9.9.<.y 8 v.#XXX#XF.2 W {.:X4X4X%.+ & & & & & X   ",
"  M M M M M M M 2.w.9.9.9.>.: u v.#XXX#XJ.5 W {.#X:X4X%.+ & & & & & X   ",
"  M M M M M M M { 5.9.9.4.` $ 5 C.#XXX#XD.2 W {.XX#X;X%.+ & & & & & X   ",
"    M M M M M M M [ ,.| ' & & w K.#XXX#XC.& W {.XXXX#X+.& & & & & &     ",
"    M M M M M M M B a : $ & + P (.XXXX#Xg.+ W {.XXXX{./ & & & & & &     ",
"    M M M M M M M M M a 2 & i v.#XXXXX X+.+ W {.XXXX X/ & & & & & &     ",
"    M M M M M M F @.i.r.;.f.L.XXXXXX#XU.i + W {.XXXX{./ & & & & & X     ",
"      M M M M M ;.(.#XXXXX#X#XXXXXXX X-.& & W {.XXXX{./ # & & & &       ",
"      M M M M F Z.#XXXXXXXXXXXXX#XXXz.w & & W {.XXXX{./ # & & & #       ",
"        M M M M v.#X#XXXXX#X#X#X'.k.w & & & J (.#X#X'.I & & & &         ",
"        M M M M ( D.R.(.(.Q.P.z.~ 2 & & & & 5 f.(.(.k.8 & & & X         ",
"          M M M M F S J K k t 2 & & & & & & & 5 J J 8 & & & #           ",
"            M M M M j 2 & & & & & & & & & & & & & & & & & &             ",
"              M M M M j 5 & & & & & & & & & & & & & & & #               ",
"                M M M B l 5 & & & & & & & & & & & & & X                 ",
"                    l M M j 5 & & & & & & & & & & #                     ",
"                        j M j 5 & & & & & & & +                         ",
"                                X X X X                                 ",
"                                                                        "
};
