/* XPM */
static char *power[] = {
/* columns rows colors chars-per-pixel */
"31 31 111 2 ",
"   c None",
".  c #B95656",
"X  c #BB5656",
"o  c #BC5656",
"O  c #BE5757",
"+  c #BF5757",
"@  c #B45959",
"#  c #BC5858",
"$  c #BD5959",
"%  c #BF5959",
"&  c #B85E5E",
"*  c #B66868",
"=  c #BB6A6A",
"-  c #BE6B6B",
";  c #BE7878",
":  c #BD7B7B",
">  c #C15959",
",  c #C25959",
"<  c #C65959",
"1  c #C45A5A",
"2  c #C55A5A",
"3  c #C55B5B",
"4  c #C65A5A",
"5  c #C65B5B",
"6  c #C75B5B",
"7  c #C65C5C",
"8  c #C75C5C",
"9  c #C55F5F",
"0  c #C85C5C",
"q  c #C85E5E",
"w  c #C16161",
"e  c #C76565",
"r  c #C76666",
"t  c #C86161",
"y  c #C96464",
"u  c #CA6464",
"i  c #CA6565",
"p  c #CB6767",
"a  c #C46D6D",
"s  c #C96F6F",
"d  c #CD6F6F",
"f  c #C57373",
"g  c #CE7070",
"h  c #C17979",
"j  c #D07777",
"k  c #D17A7A",
"l  c #C08383",
"z  c #C38686",
"x  c #CF8787",
"c  c #CC8989",
"v  c #CF8E8E",
"b  c #D38080",
"n  c #D38383",
"m  c #D48383",
"M  c #D58484",
"N  c #D78B8B",
"B  c #D88D8D",
"V  c #C99494",
"C  c #DB9696",
"Z  c #DD9D9D",
"A  c #D4A2A2",
"S  c #D4A3A3",
"D  c #DDA2A2",
"F  c #DEA2A2",
"G  c #DAB8B8",
"H  c #DCB9B9",
"J  c #E1A7A7",
"K  c #E1A9A9",
"L  c #E2A9A9",
"P  c #E1AAAA",
"I  c #E2AAAA",
"U  c #E5B4B4",
"Y  c #E8BDBD",
"T  c #DFC0C0",
"R  c #E3C2C2",
"E  c #EBC5C5",
"W  c #E3C8C8",
"Q  c #EAC9C9",
"!  c #EDCACA",
"~  c #EDCBCB",
"^  c #EBD3D3",
"/  c #E9D4D4",
"(  c #E9D5D5",
")  c #EBD4D4",
"_  c #F0D5D5",
"`  c #F1D5D5",
"'  c #F2D9D9",
"]  c #F0E4E4",
"[  c #F1E4E4",
"{  c #F1E5E5",
"}  c #F4E6E6",
"|  c #F6E6E6",
" . c #F6E7E7",
".. c #F7E7E7",
"X. c #F5ECEC",
"o. c #F9EDED",
"O. c #F8F1F1",
"+. c #FAF2F2",
"@. c #FBF2F2",
"#. c #F9F4F4",
"$. c #FBF5F5",
"%. c #FAF6F6",
"&. c #FCF5F5",
"*. c #FCF7F7",
"=. c #FCF9F9",
"-. c #FDFDFD",
";. c #FEFDFD",
":. c #FFFDFD",
">. c #FEFEFE",
",. c #FFFEFE",
"<. c #FFFFFF",
/* pixels */
"                      5 8 5 8 8 5 5 8 5                       ",
"                  8 8 8 8 8 8 8 8 8 8 8 8 5                   ",
"              5 5 8 8 8 8 8 8 8 8 8 8 8 8 8 5 5               ",
"            8 8 8 8 8 8 8 8 8 5 8 8 8 8 8 8 8 8 8             ",
"          8 8 8 8 8 8 8 8 8 u k u 8 8 8 8 8 8 8 8 8           ",
"        8 8 8 8 8 8 8 8 8 5 C  .C 5 8 8 8 8 8 8 8 8 8         ",
"      8 8 8 8 8 8 8 5 5 5 8 P <.P 8 5 5 5 8 8 8 8 8 8 8       ",
"    5 8 8 8 8 8 8 5 u k u 5 P <.P 8 d n u 5 8 8 8 8 8 8 5     ",
"    5 8 8 8 8 8 5 g Y o.Z 8 P <.P 0 U *.Y g 5 8 8 8 8 8 8     ",
"  8 8 8 8 8 8 5 g ~ <.[ x 5 P <.P 8 v [ <.~ g 5 8 8 8 8 8 5   ",
"  8 8 8 8 8 5 u Y <.( ; $ 8 P <.P 5 $ ; ( <.Y u 5 8 8 8 8 8   ",
"5 8 8 8 8 8 5 B *.[ h O 5 8 P <.P 8 5 O h [ *.B 5 8 8 8 8 8 5 ",
"8 8 8 8 8 8 t E <.S $ 5 8 8 P <.P 8 8 8 $ S <.E t 8 8 8 8 8 8 ",
"5 8 8 8 8 5 g  .X.f 5 8 8 8 P <.P 8 8 8 5 f X. .g 5 8 8 8 8 5 ",
"8 8 8 8 8 5 m @.^ e 5 8 8 8 P <.P 8 8 8 5 e ^ @.M 5 8 8 8 8 8 ",
"8 8 8 8 8 5 N *.Q u 5 8 8 5 D =.D 5 8 8 5 u Q *.N 5 8 8 8 8 8 ",
"8 8 8 8 8 5 n @.` u 5 8 8 5 a V a 5 8 8 5 u ` @.n 5 8 8 8 8 8 ",
"5 8 8 8 8 5 s  .o.j 5 8 8 8 > . > 8 8 8 5 j o. .s 5 8 8 8 8 5 ",
"8 8 8 8 8 8 8 R <.J 8 8 8 8 8 0 8 8 8 8 8 J <.R 8 8 8 8 8 8 8 ",
"5 8 8 8 8 8 5 c #. .n 5 8 8 8 8 8 8 8 5 n  .#.c 5 8 8 8 8 8 5 ",
"  8 8 8 8 8 5 w H <.' n 8 5 5 5 5 5 8 n ' <.H w 5 8 8 8 8 8   ",
"  5 8 8 8 8 8 5 - W <. .P j u u u j J  .<.W - 5 8 8 8 8 8 5   ",
"    5 8 8 8 8 8 > = G #.<.o.` ~ ` o.<.#.G = > 8 8 8 8 8 8     ",
"    5 8 8 8 8 8 8 > & z T [ @.#.@.[ T z & > 8 8 8 8 8 8 5     ",
"      8 8 8 8 8 8 8 5 O @ * ; l ; * @ . 5 8 8 8 8 8 8 8       ",
"        8 8 8 8 8 8 8 8 5 > O O O > 5 8 8 8 8 8 8 8 8         ",
"          8 8 8 8 8 8 8 8 8 8 8 8 8 8 8 8 8 8 8 8 8           ",
"            8 8 8 8 8 8 8 8 8 8 8 8 8 8 8 8 8 8 8             ",
"              5 8 8 8 8 8 8 8 8 8 8 8 8 8 8 8 5               ",
"                  5 8 8 8 8 8 8 8 8 8 8 8 5                   ",
"                      5 8 5 8 8 8 5 8 5                       "
};
