/* XPM */
static char *qbittorrent[] = {
/* columns rows colors chars-per-pixel */
"32 32 78 1 ",
"  c None",
". c #389898",
"X c #399898",
"o c #399999",
"O c #3A9999",
"+ c #3B9999",
"@ c #3B9A9A",
"# c #3E9B9B",
"$ c #3F9B9B",
"% c #3F9C9C",
"& c #409C9C",
"* c #419C9C",
"= c #459F9F",
"- c #469F9F",
"; c #479F9F",
": c #49A1A1",
"> c #4BA2A2",
", c #4CA2A2",
"< c #4EA3A3",
"1 c #4FA4A4",
"2 c #62ADAD",
"3 c #63AEAE",
"4 c #67B0B0",
"5 c #68B0B0",
"6 c #6CB2B2",
"7 c #6DB3B3",
"8 c #6FB4B4",
"9 c #71B5B5",
"0 c #77B8B8",
"q c #82BDBD",
"w c #85BFBF",
"e c #86BFBF",
"r c #93C6C6",
"t c #94C7C7",
"y c #95C7C7",
"u c #96C7C7",
"i c #97C8C8",
"p c #98C8C8",
"a c #99C8C8",
"s c #99C9C9",
"d c #9BCACA",
"f c #9DCBCB",
"g c #A0CCCC",
"h c #A4CECE",
"j c #A8D1D1",
"k c #A9D1D1",
"l c #AAD1D1",
"z c #ACD2D2",
"x c #B0D4D4",
"c c #B1D5D5",
"v c #B2D5D5",
"b c #B4D6D6",
"n c #B5D6D6",
"m c #B6D7D7",
"M c #B7D7D7",
"N c #B7D8D8",
"B c #B9D9D9",
"V c #BAD9D9",
"C c #BADADA",
"Z c #BBDADA",
"A c #BCDADA",
"S c #BEDCDC",
"D c #C1DDDD",
"F c #C5DFDF",
"G c #C7E0E0",
"H c #C8E0E0",
"J c #C9E1E1",
"K c #CAE1E1",
"L c #D0E4E4",
"P c #D1E5E5",
"I c #D3E6E6",
"U c #D7E8E8",
"Y c #D8E8E8",
"T c #D9E9E9",
"R c #DAE9E9",
"E c #DBEAEA",
"W c #DCEAEA",
"Q c #DFECEC",
/* pixels */
"                                ",
"            OOOOOOOO            ",
"         OOOOOOOOOOOOOO         ",
"       OOOOOOOOOOOOOOOOO        ",
"      OOOOOOOOOOOOOOOOOOOO      ",
"     OOOOOOOOOOOOOOOOOOOOOO     ",
"    OOOOOOOOOOOOOOOOOOOOOOOO    ",
"   OOOOOOOOOOOOOOOOOOOOOOOOO    ",
"   OOOOOOOOOOOO$OOOOOOOOOOOOO   ",
"  OOOOOOOOOO$3ag>OOOOOOOOOOOOO  ",
"  OOOOOOOOO-aRLj1OOOOOOOOOOOOO  ",
" OOOOOOOOO%yQy7ya>OOOOOOOOOOOO  ",
" OOOOOOOOO4Ry5GRh<OOOOOOOOOOOOO ",
" OOOOOOOOOfL3ZJ7qa<OOOOOOOOOOOO ",
" OOOOOOOO-Fj9W0wRv>OOOOOOOOOOOO ",
" OOOOOOOO<LrwU5Jj-OOOOOOOOOOOOO ",
" OOOOOOOO<LrwU5Gj-$&&&&&&&&&&&& ",
" OOOOOOOO-Fj9W0wRDbbbbbbbbbbbbv ",
" OOOOOOOOOfL3ZJ7qvZZZZZZZZZZZZA ",
" OOOOOOOOO4Ry4GRZNZZZZZZZZZZZZz ",
" OOOOOOOOO$yQy8ybZZZZZZZZZZZZA  ",
"  OOOOOOOOO-iRLZZZZZZZZZZZZZZv  ",
"  OOOOOOOOOO$3ivbbbbbbbbbbbbbJ  ",
"   OOOOOOOOOOOO$&&&&&&&&&&&&&   ",
"   OOOOOOOOOOOOOOOOOOOOOOOOO    ",
"    OOOOOOOOOOOOOOOOOOOOOOOO    ",
"     OOOOOOOOOOOOOOOOOOOOOO     ",
"      OOOOOOOOOOOOOOOOOOOO      ",
"       OOOOOOOOOOOOOOOOO        ",
"         OOOOOOOOOOOOOO         ",
"            OOOOOOOO            ",
"                                "
};
