/* XPM */
static char *settings[] = {
/* columns rows colors chars-per-pixel */
"32 32 84 1 ",
"  c None",
". c #2F475C",
"X c #2F485C",
"o c #30485C",
"O c #31495D",
"+ c #324A5E",
"@ c #334B5F",
"# c #344B5F",
"$ c #344C5F",
"% c #354C60",
"& c #364D61",
"* c #3E5568",
"= c #3F5669",
"- c #405669",
"; c #40576A",
": c #41576A",
"> c #42586A",
", c #42586B",
"< c #43596B",
"1 c #4A5F71",
"2 c #4B6072",
"3 c #4C6172",
"4 c #4C6173",
"5 c #586B7C",
"6 c #5B6E7F",
"7 c #5B6F7F",
"8 c #5C7080",
"9 c #617484",
"0 c #657787",
"q c #6C7D8C",
"w c #7C8B99",
"e c #7C8C9A",
"r c #7D8C9A",
"t c #7D8D9A",
"y c #7E8D9A",
"u c #7E8D9B",
"i c #7F8E9C",
"p c #808F9D",
"a c #818F9D",
"s c #8795A2",
"d c #8896A3",
"f c #96A3AE",
"g c #9EA9B4",
"h c #A0ABB6",
"j c #A2ADB7",
"k c #A3ADB8",
"l c #A3AEB8",
"z c #A4AFB9",
"x c #A6B1BB",
"c c #A7B1BB",
"v c #A7B1BC",
"b c #A8B2BC",
"n c #A9B3BD",
"m c #BDC4CD",
"M c #C2C9D1",
"N c #C3CAD2",
"B c #C4CBD3",
"V c #C5CBD3",
"C c #C5CCD4",
"Z c #C7CDD5",
"A c #C7CED5",
"S c #C7CED6",
"D c #D2D7DE",
"F c #D4D9E0",
"G c #D6DBE1",
"H c #D7DCE2",
"J c #DDE1E7",
"K c #DEE2E8",
"L c #DFE3E8",
"P c #DFE3E9",
"I c #E2E6EB",
"U c #E3E6EB",
"Y c #E3E6EC",
"T c #E3E7EC",
"R c #E4E7EC",
"E c #E4E7ED",
"W c #E6E9EE",
"Q c #E7E9EE",
"! c #E7EAEF",
"~ c #E8EAEF",
"^ c #E8EBF0",
"/ c #E9EBF0",
"( c #E9ECF1",
") c #EAECF1",
/* pixels */
"            ++++++++            ",
"         ++++++++++++++         ",
"       ++++++++++++++++++       ",
"      +++++++++XX+++++++++      ",
"     +++++++++1991+++++++++     ",
"    ++++++++++hYIh++++++++++    ",
"   ++++++%+++=Z^^Z=+++%++++++   ",
"  ++++++wz5+:yLQQLy:+5zw++++++  ",
"  +++++yJ(FlNIQQQQINlF(Jy+++++  ",
" +++++%n(QQ^^^~RYQ^^^QQ(n%+++++ ",
" ++++++8HQQQRmsqqsmRQQQH8++++++ ",
" ++++++$c^QJd=X..X=dJQ^v%++++++ ",
"+++++++>N^Rd++++++++dR^V>+++++++",
"++++++=yI^m=++7ff7++=m^Yy=++++++",
"++++2gVLQQs.+7D((D7+XsQQLVg2++++",
"+++.0R^QQYq.+f(QQ(f+.qRQQ^R0.+++",
"+++.0R^QQRq.+f(QQ(f+.qYQQ^R0.+++",
"++++3jZLQ~sX+7D((D7+XsQQLZj3++++",
"++++++:aY^m=++7ff7++=m^Iy:++++++",
"+++++++>Z^Rd++++++++dR^N:+++++++",
" ++++++#c^QJd=X..X=dJQ^l+++++++ ",
" ++++++7FQQQRmsqqsmRQQQF5++++++ ",
" +++++%n(QQ^^^~RR~^^^QQ(z%+++++ ",
"  +++++iL(FcVYQQQQYVvH(Jw+++++  ",
"  +++++#in7#>aLQQLy>$8ny++++++  ",
"   ++++++%+++:Z^^V*+++%++++++   ",
"    ++++++++++jRRg++++++++++    ",
"     +++++++++3002+++++++++     ",
"      +++++++++..+++++++++      ",
"       ++++++++++++++++++       ",
"         ++++++++++++++         ",
"            ++++++++            "
};
