/* XPM */
static char *terminal[] = {
/* columns rows colors chars-per-pixel */
"36 36 2 1 ",
"  c None",
". c #4B5563",
/* pixels */
"                                    ",
"                                    ",
"                                    ",
"                                    ",
"                                    ",
"       ......................       ",
"     ..........................     ",
"    ............................    ",
"    ............................    ",
"    ............................    ",
"    ............................    ",
"    .....   ....................    ",
"    .....    ...................    ",
"    .....     ..................    ",
"    ......     .................    ",
"    .......     ................    ",
"    ........     ...............    ",
"    .........     ..............    ",
"    .........     ..............    ",
"    ........     ...............    ",
"    .......     ................    ",
"    ......     .................    ",
"    .....     ....         .....    ",
"    .....    .....         .....    ",
"    .....   ......         .....    ",
"    ............................    ",
"    ............................    ",
"    ............................    ",
"    ............................    ",
"     ..........................     ",
"      ........................      ",
"                                    ",
"                                    ",
"                                    ",
"                                    ",
"                                    "
};
