/* XPM */
static char *ubuntu_icon_multi_24[] = {
/* columns rows colors chars-per-pixel */
"4 4 4 1 ",
"  c None",
". c #E55C56",
"X c #E76A59",
"o c #FB9920",
/* pixels */
"    ",
"  . ",
"  X ",
"  o "
};
